<svg xmlns="http://www.w3.org/2000/svg" xmlns:xlink="http://www.w3.org/1999/xlink" preserveAspectRatio="xMidYMid meet" version="1.0" viewBox="0.0 0.0 500.0 648.7" zoomAndPan="magnify" style="fill: rgb(0, 0, 0);" original_string_length="1428"><g id="__id66_s6c0y2rvtl"><path d="M472,71H365.2L308.9,15c-0.9-0.9-1.8-1.6-2.7-2.3C297.3,5.3,283.4,0,272.4,0H28C12.6,0,0,12.6,0,28v521.7 c0,15.4,12.6,28,28,28H60v43c0,15.4,12.6,28,28,28h384c15.4,0,28-12.6,28-28V98.9C500,83.5,487.4,71,472,71z M300.4,38.6L401,138.5 h-95.4c-2.9,0-5.3-2.4-5.3-5.3V38.6z M22.7,549.7V28c0-2.9,2.4-5.3,5.3-5.3h244.4c1.7,0,3.6,0.3,5.6,0.8c-0.2,1.4-0.3,2.9-0.3,4.4 v105.2c0,15.4,12.6,28,28,28H412c1.6,0,3.1-0.1,4.4-0.3c0.5,2,0.8,3.9,0.8,5.6v383.2c0,2.9-2.4,5.3-5.3,5.3H28 C25.1,555,22.7,552.6,22.7,549.7z M477.3,620.7c0,2.9-2.4,5.3-5.3,5.3H88c-2.9,0-5.3-2.4-5.3-5.3v-43H412c15.4,0,28-12.6,28-28 V166.5c0-11-5.3-24.7-12.7-33.6c-0.7-0.9-1.5-1.8-2.5-2.8l-36.7-36.4H472c2.9,0,5.3,2.4,5.3,5.3V620.7z M353.6,246H86.4 c-5.4,0-9.7-4.4-9.7-9.7s4.4-9.7,9.7-9.7h267.2c5.4,0,9.7,4.4,9.7,9.7S359,246,353.6,246z M353.6,317H86.4c-5.4,0-9.7-4.4-9.7-9.7 s4.4-9.7,9.7-9.7h267.2c5.4,0,9.7,4.4,9.7,9.7S359,317,353.6,317z M353.6,387.9H86.4c-5.4,0-9.7-4.4-9.7-9.7s4.4-9.7,9.7-9.7h267.2 c5.4,0,9.7,4.4,9.7,9.7S359,387.9,353.6,387.9z M201,458.9H86.4c-5.4,0-9.7-4.4-9.7-9.7c0-5.4,4.4-9.7,9.7-9.7H201 c5.4,0,9.7,4.4,9.7,9.7C210.7,454.5,206.4,458.9,201,458.9z" style="fill: rgb(31, 129, 201);"/></g></svg>