<svg xmlns="http://www.w3.org/2000/svg" xmlns:xlink="http://www.w3.org/1999/xlink" preserveAspectRatio="xMidYMid meet" version="1.0" viewBox="506.0 604.8 989.1 790.5" zoomAndPan="magnify" style="fill: rgb(0, 0, 0);" original_string_length="3681"><g><g id="__id72_s6c0y2rvtl"><path d="M 1486.671875 970.5 L 1368.011719 972.660156 C 1362.449219 972.761719 1359.25 979.03125 1362.441406 983.589844 L 1380.800781 1009.839844 C 1381.050781 1010.191406 1380.960938 1010.671875 1380.621094 1010.910156 L 986.878906 1290.640625 C 986.367188 1291 985.660156 1290.640625 985.660156 1290.011719 L 985.660156 1076.878906 C 985.660156 1074.070312 984.175781 1071.460938 981.761719 1070.03125 C 979.347656 1068.589844 976.347656 1068.53125 973.878906 1069.878906 L 510.410156 1321.890625 C 508.554688 1322.898438 507.171875 1324.609375 506.574219 1326.640625 C 505.976562 1328.660156 506.203125 1330.851562 507.214844 1332.699219 L 527.023438 1369.128906 C 529.121094 1373 533.960938 1374.429688 537.839844 1372.328125 L 927.109375 1160.648438 C 927.625 1160.371094 928.25 1160.738281 928.25 1161.328125 L 928.25 1386.71875 C 928.25 1389 928.953125 1391.328125 930.589844 1392.921875 C 932.191406 1394.480469 934.207031 1395.238281 936.222656 1395.238281 C 937.847656 1395.238281 939.464844 1394.738281 940.84375 1393.769531 L 1413.519531 1057.960938 C 1413.871094 1057.710938 1414.351562 1057.800781 1414.601562 1058.148438 L 1438.398438 1092.171875 C 1441.589844 1096.730469 1448.578125 1095.878906 1450.578125 1090.691406 L 1493.28125 979.960938 C 1495.058594 975.351562 1491.601562 970.410156 1486.671875 970.5" style="fill: rgb(241, 90, 36);"/></g><g id="__id73_s6c0y2rvtl"><path d="M 803.523438 826.140625 L 803.523438 1138.449219 C 803.523438 1138.730469 803.367188 1138.988281 803.121094 1139.121094 L 690.671875 1200.289062 C 690.160156 1200.570312 689.535156 1200.191406 689.535156 1199.609375 L 689.535156 826.140625 C 689.535156 825.710938 689.878906 825.371094 690.304688 825.371094 L 802.753906 825.371094 C 803.179688 825.371094 803.523438 825.710938 803.523438 826.140625" style="fill: rgb(0, 146, 69);"/></g><g id="__id74_s6c0y2rvtl"><path d="M 1259.421875 605.53125 L 1259.421875 1071.179688 C 1259.421875 1071.429688 1259.300781 1071.660156 1259.089844 1071.808594 L 1146.640625 1151.691406 C 1146.128906 1152.050781 1145.429688 1151.691406 1145.429688 1151.058594 L 1145.429688 605.53125 C 1145.429688 605.101562 1145.769531 604.761719 1146.199219 604.761719 L 1258.648438 604.761719 C 1259.070312 604.761719 1259.421875 605.101562 1259.421875 605.53125" style="fill: rgb(56, 182, 255);"/></g><g id="__id75_s6c0y2rvtl"><path d="M 1100.011719 889.898438 L 1100.011719 1184.429688 C 1100.011719 1184.679688 1099.890625 1184.921875 1099.691406 1185.058594 L 1007.621094 1250.46875 C 1007.109375 1250.828125 1006.398438 1250.460938 1006.398438 1249.839844 L 1006.398438 1076.871094 C 1006.398438 1066.820312 1001.011719 1057.351562 992.367188 1052.21875 C 990.519531 1051.128906 988.589844 1050.230469 986.582031 1049.601562 C 986.265625 1049.5 986.050781 1049.21875 986.050781 1048.890625 L 986.050781 889.898438 C 986.050781 889.46875 986.398438 889.121094 986.824219 889.121094 L 1099.238281 889.121094 C 1099.660156 889.121094 1100.011719 889.46875 1100.011719 889.898438" style="fill: rgb(211, 28, 137);"/></g><g id="__id76_s6c0y2rvtl"><path d="M 951.765625 697.511719 L 951.765625 1057.851562 C 951.765625 1058.128906 951.613281 1058.390625 951.363281 1058.53125 L 838.949219 1119.660156 C 838.433594 1119.941406 837.808594 1119.570312 837.808594 1118.980469 L 837.808594 697.511719 C 837.808594 697.078125 838.15625 696.738281 838.578125 696.738281 L 950.996094 696.738281 C 951.421875 696.738281 951.765625 697.078125 951.765625 697.511719" style="fill: rgb(241, 90, 36);"/></g></g></svg>